<svg width="24" height="24" viewBox="0 0 24 24" fill="none" xmlns="http://www.w3.org/2000/svg">
<path d="M23.1139 5.48224C22.0999 5.41388 20.7631 5.3949 19.3655 5.3949C17.3337 5.3949 15.1879 5.43667 13.6688 5.43667C11.3902 5.43667 11.7167 6.02911 11.8231 7.56342C12.8697 7.77055 13.873 8.15594 14.7892 8.70276C15.641 9.18906 16.3471 9.89465 16.834 10.7462C17.3209 11.5977 17.5708 12.5641 17.5578 13.5449C17.5578 13.6323 17.5578 13.7197 17.5578 13.7994L17.9983 14.4564C18.233 14.8438 18.3875 15.2743 18.4528 15.7225C18.518 16.1706 18.4926 16.6273 18.3781 17.0655C18.251 17.6885 17.9835 18.2744 17.5957 18.7783L17.5578 19.7923C17.5263 20.4179 17.3605 21.0295 17.0715 21.5852C16.7824 22.1409 16.3771 22.6279 15.8829 23.0129H19.5364H22.4379L23.9798 7.01654C24.014 6.16204 24.1166 5.5506 23.1139 5.48224Z" fill="#D62300"></path>
<path d="M14.1929 1.79843L16.6083 2.45167L16.6311 2.88082C16.6576 3.34795 16.6804 3.81508 16.707 4.28221C17.321 4.39441 17.9502 4.39441 18.5641 4.28221C18.5375 3.7695 18.5072 3.25678 18.4806 2.74408C18.4806 2.48583 18.4578 2.22378 18.4388 1.96174C18.4366 1.72589 18.3662 1.49573 18.2361 1.29898C18.1061 1.10222 17.9219 0.947263 17.7058 0.852786C17.2102 0.673206 16.7026 0.528531 16.1867 0.419832L14.6676 0.00588524C14.2195 -0.119442 14.1929 1.79843 14.1929 1.79843Z" fill="#D62300"></path>
<path d="M13.794 20.0582C13.5434 20.0582 13.3231 20.0582 13.1598 20.0582C11.7698 20.005 10.7862 19.9822 10.0684 19.9822C9.46835 19.9822 9.12655 19.9822 8.76576 20.0164C8.40497 20.0506 7.88468 20.062 7.01499 20.062C6.25543 20.062 5.32498 20.062 4.10588 20.0088H3.92357C2.91249 20.0163 1.9065 19.8651 0.942315 19.5607C0.91734 19.7421 0.91734 19.9261 0.942315 20.1076C1.01278 20.6164 1.20956 21.0996 1.51472 21.5129C1.81988 21.9261 2.22369 22.2564 2.68929 22.4736C3.51444 22.7883 4.39863 22.9179 5.27939 22.8533H12.1154C13.0839 22.8533 14.0865 22.8534 14.9676 22.3483C15.409 22.0754 15.7777 21.6997 16.0423 21.2532C16.3068 20.8068 16.4593 20.303 16.4867 19.7847C15.6062 20.0003 14.6999 20.0923 13.794 20.0582Z" fill="#D62300"></path>
<path d="M4.14385 18.7138C5.46548 18.7518 6.36176 18.767 7.01498 18.767C8.61006 18.767 8.74298 18.6834 10.0532 18.6834C10.7064 18.6834 11.6483 18.6834 13.194 18.7632C13.3459 18.7632 13.5472 18.7632 13.7789 18.7632C14.6979 18.7632 16.0841 18.691 16.4905 18.3492C17.25 17.7188 17.721 16.0363 17.0753 15.0717C16.7623 15.3291 16.3905 15.5052 15.993 15.5844C15.5605 15.6595 15.1212 15.6875 14.6827 15.668C13.7371 15.668 12.5256 15.6148 12.1762 15.5996C11.2116 15.554 10.4558 15.535 9.87093 15.535C9.36309 15.5265 8.85532 15.5557 8.35181 15.6224C7.78141 15.696 7.20648 15.729 6.6314 15.7211C5.87184 15.7211 4.78947 15.6832 3.3577 15.6034C2.97792 15.6034 2.68549 15.5806 2.40826 15.5806C1.73984 15.5806 0.862562 15.5806 0.2815 14.9919C0.0731203 15.4567 -0.0219154 15.9644 0.00424499 16.4731C0.0118406 18.6948 2.70069 18.672 4.14385 18.7138Z" fill="#D62300"></path>
<path d="M0.934692 13.0399C0.934692 13.8565 1.079 14.1527 1.47397 14.259C1.99868 14.33 2.52857 14.3554 3.05767 14.335H3.09184H3.43745C4.97935 14.4223 5.96298 14.4527 6.63899 14.4527C8.31002 14.4527 8.10113 14.2628 9.8861 14.2628C10.4406 14.2628 11.1887 14.2818 12.2483 14.3274C12.5331 14.3274 13.7674 14.3958 14.6979 14.3958C15.0418 14.4059 15.386 14.3881 15.7271 14.3426L15.9056 14.2932L16.0461 14.24C16.1851 14.1878 16.3027 14.0907 16.3805 13.9642C16.4582 13.8377 16.4915 13.6889 16.4753 13.5413C16.4753 10.0625 13.0573 8.33447 8.72017 8.33447C6.73013 8.34966 0.934692 8.88136 0.934692 13.0399Z" fill="#D62300"></path>
</svg>
