<svg width="46" height="43" viewBox="0 0 46 43" fill="none" xmlns="http://www.w3.org/2000/svg">
<path d="M9.62502 18.9911C9.11853 20.1962 0.573227 40.3024 0.186323 41.1757C-0.350066 42.386 0.353395 43 1.25734 43H8.81956C9.65668 43 10.5641 42.5607 10.9299 41.765C11.1586 41.2621 13.9197 34.7889 13.9197 34.7889C14.4244 33.6773 14.7568 33.3527 16.8337 33.3527H23.5975C24.5366 33.3527 25.1504 32.8411 24.6984 31.7736C24.3326 30.9091 19.6124 19.7763 19.2114 18.8394C18.7753 17.9325 18.005 17.6291 17.2013 17.6291H11.6791C10.7998 17.6291 10.1051 17.8637 9.62854 18.9964M28.8858 1.1274C28.7355 0.797494 28.4956 0.516749 28.1936 0.317348C27.8915 0.117947 27.5396 0.00796174 27.1781 0H18.9547C17.9487 0 17.4282 0.582225 16.8742 1.84901C16.8742 1.84901 13.7754 9.40559 13.4114 10.1995C13.0087 11.0817 13.378 11.8121 14.5493 11.8456C14.6003 11.8562 21.0809 11.8456 21.0809 11.8456C22.4878 11.858 22.8167 12.7437 23.3671 13.9364L34.9619 41.2269C35.4649 42.3507 36.237 43 37.4434 43H44.682C46.0714 43 46.2384 41.9308 45.7531 40.807C45.3152 39.7889 29.292 2.03955 28.8858 1.1274Z" fill="white"/>
</svg>
